<?xml version="1.0" encoding="iso-8859-1"?>
<!-- Uploaded to: SVG Repo, www.svgrepo.com, Generator: SVG Repo Mixer Tools -->
<svg version="1.1" id="Layer_1" xmlns="http://www.w3.org/2000/svg" xmlns:xlink="http://www.w3.org/1999/xlink" 
	 viewBox="0 0 508.497 508.497" xml:space="preserve">
<circle style="fill:#324A5E;" cx="254.248" cy="254.192" r="217.007"/>
<path style="fill:#4CDBC4;" d="M213.221,219.946l-2.374-1.695l-10.511-7.121l8.477-27.126
	c-4.069-36.281-12.207-70.527-12.207-70.527s-15.597,35.603-20.005,98.67c-0.678,7.799,2.374,15.597,7.799,21.023
	c5.086,5.425,12.885,12.207,23.057,18.649c1.695,1.017,3.73,2.373,5.764,3.391L213.221,219.946L213.221,219.946z"/>
<g>
	<circle style="fill:#E6E9EE;" cx="201.014" cy="221.302" r="35.942"/>
	<path style="fill:#E6E9EE;" d="M236.956,221.302c0,12.546-6.442,23.735-16.276,30.177c-3.052,2.034-6.442,3.73-10.172,4.747
		c-3.052,0.678-6.103,1.356-9.494,1.356c-20.005,0-35.942-16.276-35.942-35.942c0-20.005,16.275-35.942,35.942-35.942
		C221.019,185.021,236.956,201.297,236.956,221.302z"/>
</g>
<g>
	<polygon style="fill:#CED5E0;" points="187.112,239.951 186.434,239.951 190.164,215.877 191.181,215.199 191.52,215.877 
		190.842,216.216 	"/>
	<path style="fill:#CED5E0;" d="M215.933,236.221l-21.023,10.85l15.597,8.816c3.73-1.017,7.121-2.713,10.172-4.747
		c0.678-2.373,3.052-12.546,3.052-12.885v-0.339L215.933,236.221z M220.002,251.14l-7.799,3.73c-0.339,0-0.678,0.339-1.017,0.339
		l-14.58-8.138l19.327-10.172l7.121,1.695C222.036,244.02,220.341,250.123,220.002,251.14z"/>
	<path style="fill:#CED5E0;" d="M222.376,229.44l-25.43-16.615l1.695-9.155l18.649-10.85l8.477,6.781l-0.678,18.988L222.376,229.44z
		 M197.962,212.486l24.074,15.597l2.374-9.833l1.017-18.31l-7.799-6.103l-17.971,10.511L197.962,212.486z"/>
	<path style="fill:#CED5E0;" d="M183.721,189.429c-0.339,0-0.339,0.339-0.678,0.339l5.764,10.85l-1.356,8.477l-21.701,6.442
		l-0.678-0.339c0,0.339,0,0.678,0,0.678l0.678,0.339l22.718-6.781l1.356-9.494L183.721,189.429z"/>
</g>
<g>
	<path style="fill:#324A5E;" d="M230.174,200.28l-4.069,3.052l-12.885-7.799l-2.713-7.46l3.052-0.678
		C220.341,189.768,226.105,194.176,230.174,200.28z"/>
	<polygon style="fill:#324A5E;" points="225.427,217.911 231.531,227.066 223.732,240.968 213.221,238.256 214.577,223.676 	"/>
	<path style="fill:#324A5E;" d="M222.715,249.784c-3.73,2.713-8.138,5.086-12.546,6.103l-0.678-0.678l11.528-7.46L222.715,249.784z"
		/>
	<polygon style="fill:#324A5E;" points="187.79,198.923 202.37,202.314 202.37,216.555 189.485,222.319 180.67,211.808 	"/>
</g>
<rect x="163.773" y="234.407" transform="matrix(-0.6499 -0.76 0.76 -0.6499 107.4651 518.9952)" style="fill:#CED5E0;" width="18.988" height="0.678"/>
<g>
	<path style="fill:#324A5E;" d="M169.48,215.538l-1.017,14.241l-2.374-0.339c-0.678-2.713-1.017-5.764-1.017-8.477
		c0-1.695,0-3.391,0.339-4.747c0-0.339,0-0.678,0-0.678c0.339-2.034,1.017-4.069,1.695-6.103L169.48,215.538z"/>
	<polygon style="fill:#324A5E;" points="187.112,237.238 198.98,244.698 196.267,253.175 183.043,252.497 177.618,240.968 	"/>
</g>
<g>
	<path style="fill:#FFD05B;" d="M260.013,107.713L260.013,107.713L260.013,107.713z"/>
	<path style="fill:#FFD05B;" d="M273.576,64.65l-13.224-0.678l0,0l0,0l0,0l0,0l-13.224,0.678c0,0,1.017,11.868-4.747,22.379v14.919
		l17.971,5.764l0,0l0,0l17.293-5.425V85.673C272.558,75.501,273.576,64.65,273.576,64.65z"/>
	<polygon style="fill:#FFD05B;" points="260.352,107.713 260.352,107.713 260.013,107.713 	"/>
	<path style="fill:#FFD05B;" d="M260.013,107.713L260.013,107.713L260.013,107.713z"/>
	<path style="fill:#FFD05B;" d="M277.644,85.673v16.615l-17.293,5.425l0,0l0,0l-17.971-5.764V87.029
		c1.356-2.374,2.374-5.086,3.052-7.46c2.373-8.138,1.695-14.919,1.695-14.919l13.224-0.678l0,0l0,0l0,0l0,0l13.224,0.678
		c0,0-0.678,6.781,1.695,14.58C275.61,81.265,276.627,83.299,277.644,85.673z"/>
	<polygon style="fill:#FFD05B;" points="260.352,107.713 260.352,107.713 260.013,107.713 	"/>
</g>
<polygon style="fill:#FF7058;" points="207.795,278.266 206.778,304.036 209.152,390.499 253.57,390.499 260.013,338.282 
	266.794,390.499 311.213,390.499 313.586,304.036 312.569,278.266 "/>
<path style="fill:#4CDBC4;" d="M343.425,212.147c-4.069-63.068-19.666-98.67-19.666-98.67s-8.138,33.907-11.868,70.866l8.477,27.126
	l-10.511,7.121l-1.695,1.017v35.603c1.695-1.017,3.391-2.034,4.747-3.052c10.172-6.442,17.632-13.563,23.057-18.649
	C341.051,227.744,344.103,219.946,343.425,212.147z"/>
<path style="fill:#F9B54C;" d="M274.932,79.231l-1.017,1.356c-2.374,3.052-5.764,4.747-9.494,5.425l-2.374,0.339
	c-1.356,0.339-2.713,0.339-4.069,0l-2.374-0.339c-3.73-0.678-7.121-2.374-9.494-5.425l-1.017-1.017
	c2.373-8.138,1.695-14.919,1.695-14.919l13.224-0.678l0,0l0,0l0,0l0,0l13.224,0.678C273.576,64.65,272.897,71.432,274.932,79.231z"
	/>
<g>
	<path style="fill:#FFD05B;" d="M259.674,21.927h-25.091l4.408,42.384c0.339,3.052,1.356,5.764,3.391,8.138l3.391,4.069
		c2.374,3.052,5.764,4.747,9.494,5.425l2.373,0.339c1.356,0.339,2.713,0.339,4.069,0l2.374-0.339
		c3.73-0.678,7.121-2.374,9.494-5.425l3.391-4.069c2.034-2.374,3.052-5.086,3.391-8.138l4.408-42.384H259.674z"/>
	<path style="fill:#FFD05B;" d="M287.817,46.68c-1.356,3.052-4.069,5.086-6.103,4.408c-2.034-0.678-3.052-4.069-1.695-7.46
		c1.356-3.052,4.069-5.086,6.103-4.408C288.156,40.237,288.834,43.628,287.817,46.68z"/>
	<path style="fill:#FFD05B;" d="M231.87,46.68c1.356,3.052,4.069,5.086,6.103,4.408c2.034-0.678,3.052-4.069,1.695-7.46
		c-1.356-3.052-4.069-5.086-6.103-4.408C231.531,40.237,230.852,43.628,231.87,46.68z"/>
</g>
<g>
	<path style="fill:#324A5E;" d="M239.329,12.433c0,0,20.344-30.517,48.827,4.069l-3.052-1.017c0,0,5.425,5.764,0.678,25.091
		c0,0-3.052,0.339-4.069,7.121c0,0-0.678-15.936-4.747-18.988c0,0-26.787,1.695-33.568-4.408c0,0-6.781,11.189-4.069,26.787
		c0,0-5.086-9.833-7.799-15.258c-2.034-3.73-3.052-7.799-3.052-12.207C228.818,18.536,230.852,12.433,239.329,12.433z"/>
	<path style="fill:#324A5E;" d="M308.161,492.899H279.34v11.868c0,2.034,1.695,3.73,3.73,3.73h38.654v-1.695
		C322.063,499.003,315.621,492.899,308.161,492.899z"/>
</g>
<path style="fill:#2B3B4E;" d="M212.203,492.899h28.821v11.868c0,2.034-1.695,3.73-3.73,3.73h-38.993v-1.695
	C198.301,499.003,204.405,492.899,212.203,492.899z"/>
<g>
	<polygon style="fill:#FFD05B;" points="300.701,390.499 269.168,390.499 280.696,492.899 300.701,492.899 	"/>
	<polygon style="fill:#FFD05B;" points="219.663,390.499 251.197,390.499 239.668,492.899 219.663,492.899 	"/>
</g>
<g>
	<polygon style="fill:#E6E9EE;" points="272.558,422.372 280.696,492.899 300.701,492.899 300.701,422.372 	"/>
	<polygon style="fill:#E6E9EE;" points="219.663,422.372 219.663,492.899 239.668,492.899 247.467,422.372 	"/>
</g>
<g>
	<polygon style="fill:#FF7058;" points="300.701,449.837 300.701,445.429 275.271,445.429 275.949,449.837 	"/>
	<polygon style="fill:#FF7058;" points="244.415,449.837 245.093,445.429 219.663,445.429 219.663,449.837 	"/>
	<polygon style="fill:#FF7058;" points="300.701,443.395 300.701,437.631 274.593,437.631 274.932,443.395 	"/>
	<polygon style="fill:#FF7058;" points="245.093,443.395 245.772,437.631 219.663,437.631 219.663,443.395 	"/>
</g>
<path style="fill:#2C9984;" d="M311.552,184.343c5.086-40.35,11.868-70.866,11.868-70.866c-11.528-14.919-46.792-29.16-46.792-29.16
	l0,0v0.339c-2.374,8.477-9.494,12.885-16.615,12.885s-14.241-4.408-16.615-12.885v-0.339l0,0c0,0-34.924,14.241-46.792,29.16
	c0,0,6.781,30.517,11.868,70.866c4.069,32.89-1.695,60.016-1.017,94.94H312.23C313.247,244.02,307.483,217.233,311.552,184.343z"/>
<circle style="fill:#E6E9EE;" cx="285.104" cy="144.672" r="13.563"/>
</svg>